# Blender 4.1.1
# www.blender.org
mtllib MyLittleCube.mtl
o MyLittleCube
v -1.000000 -1.000000 1.000000
v -1.000000 1.000000 1.000000
v -1.000000 -1.000000 -1.000000
v -1.000000 1.000000 -1.000000
v 1.000000 -1.000000 1.000000
v 1.000000 1.000000 1.000000
v 1.000000 -1.000000 -1.000000
v 1.000000 1.000000 -1.000000
vn -1.0000 -0.0000 -0.0000
vn -0.0000 -0.0000 -1.0000
vn 1.0000 -0.0000 -0.0000
vn -0.0000 -0.0000 1.0000
vn -0.0000 -1.0000 -0.0000
vn -0.0000 1.0000 -0.0000
vt 0.017857 0.017857
vt 0.315476 0.315476
vt 0.017857 0.315476
vt 0.017857 0.351191
vt 0.315476 0.648810
vt 0.017857 0.648809
vt 0.351190 0.017857
vt 0.648809 0.315476
vt 0.351190 0.315476
vt 0.351191 0.351190
vt 0.648809 0.648810
vt 0.351190 0.648809
vt 0.017857 0.982143
vt 0.315476 0.684524
vt 0.315476 0.982143
vt 0.351190 0.982143
vt 0.648809 0.684524
vt 0.648809 0.982143
vt 0.315476 0.017857
vt 0.315476 0.351191
vt 0.648809 0.017857
vt 0.648809 0.351191
vt 0.017857 0.684524
vt 0.351191 0.684524
s 0
f 2/1/1 3/2/1 1/3/1
f 4/4/2 7/5/2 3/6/2
f 8/7/3 5/8/3 7/9/3
f 6/10/4 1/11/4 5/12/4
f 7/13/5 1/14/5 3/15/5
f 4/16/6 6/17/6 8/18/6
f 2/1/1 4/19/1 3/2/1
f 4/4/2 8/20/2 7/5/2
f 8/7/3 6/21/3 5/8/3
f 6/10/4 2/22/4 1/11/4
f 7/13/5 5/23/5 1/14/5
f 4/16/6 2/24/6 6/17/6
